0
SECTION
2
HEADER
9
$INSUNITS
70
4
9
$ACADVER
1
AC1014
9
$HANDSEED
5
FFFF
0
ENDSEC
0
SECTION
2
TABLES
0
TABLE
2
VPORT
5
8
100
AcDbSymbolTable
0
ENDTAB
0
TABLE
2
LTYPE
5
5
100
AcDbSymbolTable
0
LTYPE
5
14
100
AcDbSymbolTableRecord
100
AcDbLinetypeTableRecord
2
BYBLOCK
70
0
0
LTYPE
5
15
100
AcDbSymbolTableRecord
100
AcDbLinetypeTableRecord
2
BYLAYER
70
0
0
ENDTAB
0
TABLE
2
LAYER
5
2
100
AcDbSymbolTable
70
2
0
LAYER
5
50
100
AcDbSymbolTableRecord
100
AcDbLayerTableRecord
2
0
70
0
6
CONTINUOUS
0
ENDTAB
0
TABLE
2
STYLE
5
3
100
AcDbSymbolTable
70
1
0
STYLE
5
11
100
AcDbSymbolTableRecord
100
AcDbTextStyleTableRecord
2
STANDARD
70
0
0
ENDTAB
0
TABLE
2
VIEW
5
6
100
AcDbSymbolTable
70
0
0
ENDTAB
0
TABLE
2
UCS
5
7
100
AcDbSymbolTable
70
0
0
ENDTAB
0
TABLE
2
APPID
5
9
100
AcDbSymbolTable
70
2
0
APPID
5
12
100
AcDbSymbolTableRecord
100
AcDbRegAppTableRecord
2
ACAD
70
0
0
ENDTAB
0
TABLE
2
DIMSTYLE
5
A
100
AcDbSymbolTable
70
1
0
ENDTAB
0
TABLE
2
BLOCK_RECORD
5
1
100
AcDbSymbolTable
70
1
0
BLOCK_RECORD
5
1F
100
AcDbSymbolTableRecord
100
AcDbBlockTableRecord
2
*MODEL_SPACE
0
BLOCK_RECORD
5
1B
100
AcDbSymbolTableRecord
100
AcDbBlockTableRecord
2
*PAPER_SPACE
0
ENDTAB
0
ENDSEC
0
SECTION
2
BLOCKS
0
BLOCK
5
20
100
AcDbEntity
100
AcDbBlockBegin
2
*MODEL_SPACE
0
ENDBLK
5
21
100
AcDbEntity
100
AcDbBlockEnd
0
BLOCK
5
1C
100
AcDbEntity
100
AcDbBlockBegin
2
*PAPER_SPACE
0
ENDBLK
5
1D
100
AcDbEntity
100
AcDbBlockEnd
0
ENDSEC
0
SECTION
2
ENTITIES
0
CIRCLE
5
100
100
AcDbEntity
8
0
100
AcDbCircle
10
-206.02500000000003
20
-9.5249999999999915
30
0
40
1.25
210
0
220
0
230
1
0
CIRCLE
5
101
100
AcDbEntity
8
0
100
AcDbCircle
10
-242.14062500000006
20
-21.335999999999991
30
0
40
1.25
210
0
220
0
230
1
0
CIRCLE
5
102
100
AcDbEntity
8
0
100
AcDbCircle
10
-167.92500000000004
20
-26.098499999999987
30
0
40
1.25
210
0
220
0
230
1
0
CIRCLE
5
103
100
AcDbEntity
8
0
100
AcDbCircle
10
-242.14062500000006
20
16.76400000000001
30
0
40
1.25
210
0
220
0
230
1
0
LWPOLYLINE
5
104
100
AcDbEntity
8
0
100
AcDbPolyline
90
92
70
1
43
0.0
10
-130.56154600000002
20
-33.244999999999997
42
0.41421356237309764
10
-130.06154600000002
20
-32.744999999999997
10
-130.06154600000002
20
23.499999999999996
10
-130.069164
20
40.434049999999999
10
-130.082007
20
40.546363999999997
10
-130.11972800000001
20
40.652929999999998
10
-141.90852500000003
20
64.834591000000017
10
-141.98054300000001
20
64.94345100000001
10
-142.07830700000002
20
65.029940999999994
10
-142.19512600000002
20
65.088179999999994
10
-142.323037
20
65.114198999999999
10
-142.45332400000001
20
65.106226000000021
10
-142.57710800000001
20
65.064803999999995
10
-158.30600400000003
20
57.393309000000002
10
-159.35685900000001
20
56.881031
10
-159.40080700000001
20
56.862156000000006
10
-159.44635400000001
20
56.847560000000001
10
-176.83661400000003
20
52.180475999999999
10
-178.00851100000003
20
51.866984000000009
10
-178.07256000000001
20
51.854261000000008
10
-178.13772200000002
20
51.850000000000009
10
-195.66395700000001
20
51.850000000000009
10
-195.80129099999999
20
51.830741000000003
10
-195.92806300000004
20
51.774537000000009
10
-196.03452000000001
20
51.685673000000001
10
-196.11247200000003
20
51.57098400000001
10
-206.38752800000003
20
30.716515999999999
10
-206.465451
20
30.601801000000002
10
-206.57191700000001
20
30.512930000000004
10
-206.69869800000001
20
30.456721000000005
10
-206.83604300000002
20
30.4375
10
-225.07499999999999
20
30.4375
10
-225.20441000000002
20
30.454536999999998
10
-225.32500000000002
20
30.504487000000005
10
-225.42855300000002
20
30.583947000000002
10
-225.50801300000003
20
30.6875
10
-225.557963
20
30.808090000000004
10
-225.57500000000002
20
30.9375
10
-225.57500000000002
20
34.712499999999999
10
-225.592037
20
34.841909999999999
10
-225.64198700000003
20
34.962499999999999
10
-225.72144700000001
20
35.066052999999997
10
-225.82500000000005
20
35.145513000000001
10
-225.94559000000004
20
35.195463000000004
10
-226.07500000000002
20
35.212500000000006
10
-243.07500000000002
20
35.212500000000006
10
-243.20441000000002
20
35.195463000000004
10
-243.32500000000005
20
35.145513000000001
10
-243.42855300000002
20
35.066052999999997
10
-243.50801300000001
20
34.962499999999999
10
-243.55796300000003
20
34.841909999999999
10
-243.57500000000002
20
34.712499999999999
10
-243.57500000000002
20
28.550000000000004
10
-243.592037
20
28.420590000000004
10
-243.64198700000003
20
28.300000000000001
10
-243.72144700000004
20
28.196446999999999
10
-243.82499999999999
20
28.116987000000005
10
-243.94559000000001
20
28.067036999999999
10
-244.07500000000002
20
28.050000000000001
10
-262.17500000000001
20
28.050000000000001
10
-262.30440900000002
20
28.032962999999999
10
-262.42500000000001
20
27.983012000000002
10
-262.52855299999999
20
27.903552999999999
10
-262.60801200000003
20
27.800000000000004
10
-262.657963
20
27.679409
10
-262.67500000000001
20
27.550000000000004
10
-262.67500000000001
20
-27.455000000000002
42
0.41421356237309243
10
-262.17500000000001
20
-27.954999999999998
10
-244.09999999999999
20
-27.95500000000002
42
-0.41421356237307683
10
-243.59999999999999
20
-28.454999999999995
10
-243.60000000000002
20
-39.355000000000004
42
0.41421356237309503
10
-243.10000000000002
20
-39.855000000000004
10
-225.05000000000001
20
-39.854999999999976
42
-0.4142135623730222
10
-224.55000000000001
20
-40.354999999999997
10
-224.55000000000001
20
-44.130000000000003
42
0.41421356237309503
10
-224.05000000000001
20
-44.630000000000003
10
-206
20
-44.629999999999974
42
-0.4142135623730222
10
-205.5
20
-45.129999999999995
10
-205.5
20
-46.50500000000001
42
0.41421356237309503
10
-205
20
-47.00500000000001
10
-188
20
-47.004999999999995
42
0.41421356237309503
10
-187.5
20
-46.50500000000001
10
-187.5
20
-45.129999999999995
42
-0.4142135623730222
10
-187.00000000000003
20
-44.630000000000003
10
-168.95000000000005
20
-44.630000000000003
42
0.41421356237309503
10
-168.45000000000002
20
-44.130000000000003
10
-168.44999999999999
20
-42.742500000000007
42
-0.4142135623730222
10
-167.95000000000002
20
-42.242500000000007
10
-149.90000000000003
20
-42.242500000000007
42
0.41421356237309503
10
-149.40000000000001
20
-41.742500000000007
10
-149.40000000000001
20
-33.744999999999997
42
-0.41421356237310802
10
-148.90000000000001
20
-33.244999999999997
0
LWPOLYLINE
5
105
100
AcDbEntity
8
0
100
AcDbPolyline
90
4
70
1
43
0.0
10
-203.5
20
-26.050000000000004
10
-203.5
20
-12.050000000000001
10
-189.50000000000003
20
-12.050000000000001
10
-189.50000000000003
20
-26.050000000000004
0
LWPOLYLINE
5
106
100
AcDbEntity
8
0
100
AcDbPolyline
90
4
70
1
43
0.0
10
-222.55000000000001
20
-23.668749999999999
10
-222.55000000000001
20
-9.6687499999999993
10
-208.55000000000001
20
-9.6687499999999993
10
-208.55000000000001
20
-23.668749999999999
0
LWPOLYLINE
5
107
100
AcDbEntity
8
0
100
AcDbPolyline
90
4
70
1
43
0.0
10
-147.40662400000002
20
39.608925999999997
10
-153.54382000000001
20
52.192042000000001
10
-140.96070400000002
20
58.329237999999997
10
-134.823508
20
45.746122
0
CIRCLE
5
108
100
AcDbEntity
8
0
100
AcDbCircle
10
-153.63750000000002
20
38.893749999999997
30
0
40
1.2
210
0
220
0
230
1
0
LWPOLYLINE
5
109
100
AcDbEntity
8
0
100
AcDbPolyline
90
4
70
1
43
0.0
10
-170.76365700000002
20
37.243301000000002
10
-174.387124
20
50.766261999999998
10
-160.86416300000002
20
54.389729000000003
10
-157.24069600000001
20
40.866768
0
LWPOLYLINE
5
110
100
AcDbEntity
8
0
100
AcDbPolyline
90
4
70
1
43
0.0
10
-193.97500000000002
20
35.862499999999997
10
-193.97500000000002
20
49.862499999999997
10
-179.97500000000002
20
49.862499999999997
10
-179.97500000000002
20
35.862499999999997
0
LWPOLYLINE
5
111
100
AcDbEntity
8
0
100
AcDbPolyline
90
4
70
1
43
0.0
10
-165.39999999999998
20
16.8125
10
-165.39999999999998
20
30.812500000000004
10
-151.40000000000001
20
30.812500000000004
10
-151.40000000000001
20
16.8125
0
LWPOLYLINE
5
112
100
AcDbEntity
8
0
100
AcDbPolyline
90
4
70
1
43
0.0
10
-184.44999999999999
20
14.431250000000002
10
-184.44999999999999
20
28.431250000000002
10
-170.45000000000002
20
28.431250000000002
10
-170.45000000000002
20
14.431250000000002
0
LWPOLYLINE
5
113
100
AcDbEntity
8
0
100
AcDbPolyline
90
4
70
1
43
0.0
10
-203.5
20
12.050000000000001
10
-203.5
20
26.050000000000004
10
-189.50000000000003
20
26.050000000000004
10
-189.50000000000003
20
12.050000000000001
0
LWPOLYLINE
5
114
100
AcDbEntity
8
0
100
AcDbPolyline
90
4
70
1
43
0.0
10
-222.55000000000001
20
14.431250000000002
10
-222.55000000000001
20
28.431250000000002
10
-208.55000000000001
20
28.431250000000002
10
-208.55000000000001
20
14.431250000000002
0
LWPOLYLINE
5
115
100
AcDbEntity
8
0
100
AcDbPolyline
90
4
70
1
43
0.0
10
-241.60000000000002
20
19.193750000000001
10
-241.60000000000002
20
33.193750000000001
10
-227.60000000000002
20
33.193750000000001
10
-227.60000000000002
20
19.193750000000001
0
LWPOLYLINE
5
116
100
AcDbEntity
8
0
100
AcDbPolyline
90
4
70
1
43
0.0
10
-260.65000000000003
20
12.050000000000001
10
-260.65000000000003
20
26.050000000000004
10
-246.65000000000003
20
26.050000000000004
10
-246.65000000000003
20
12.050000000000001
0
LWPOLYLINE
5
117
100
AcDbEntity
8
0
100
AcDbPolyline
90
4
70
1
43
0.0
10
-146.35000000000002
20
7.2874999999999996
10
-146.35000000000002
20
23.287500000000001
10
-132.35000000000002
20
23.287500000000001
10
-132.35000000000002
20
7.2874999999999996
0
LWPOLYLINE
5
118
100
AcDbEntity
8
0
100
AcDbPolyline
90
4
70
1
43
0.0
10
-146.35000000000002
20
-11.762499999999999
10
-146.35000000000002
20
2.2374999999999989
10
-132.35000000000002
20
2.2374999999999998
10
-132.35000000000002
20
-11.762499999999999
0
LWPOLYLINE
5
119
100
AcDbEntity
8
0
100
AcDbPolyline
90
4
70
1
43
0.0
10
-165.39999999999998
20
-2.2374999999999998
10
-165.39999999999998
20
11.762499999999999
10
-151.40000000000001
20
11.762499999999999
10
-151.40000000000001
20
-2.2374999999999989
0
LWPOLYLINE
5
120
100
AcDbEntity
8
0
100
AcDbPolyline
90
4
70
1
43
0.0
10
-184.44999999999999
20
-4.6187500000000004
10
-184.44999999999999
20
9.3812499999999979
10
-170.45000000000002
20
9.3812499999999996
10
-170.45000000000002
20
-4.6187499999999995
0
LWPOLYLINE
5
121
100
AcDbEntity
8
0
100
AcDbPolyline
90
4
70
1
43
0.0
10
-203.5
20
-7.0000000000000009
10
-203.5
20
7.0000000000000009
10
-189.50000000000003
20
7.0000000000000009
10
-189.50000000000003
20
-7.0000000000000009
0
LWPOLYLINE
5
122
100
AcDbEntity
8
0
100
AcDbPolyline
90
4
70
1
43
0.0
10
-165.39999999999998
20
-21.287500000000001
10
-165.39999999999998
20
-7.2874999999999996
10
-151.40000000000001
20
-7.2874999999999996
10
-151.40000000000001
20
-21.287500000000001
0
LWPOLYLINE
5
123
100
AcDbEntity
8
0
100
AcDbPolyline
90
4
70
1
43
0.0
10
-184.44999999999999
20
-23.668749999999999
10
-184.44999999999999
20
-9.6687499999999993
10
-170.45000000000002
20
-9.6687499999999993
10
-170.45000000000002
20
-23.668749999999999
0
LWPOLYLINE
5
124
100
AcDbEntity
8
0
100
AcDbPolyline
90
4
70
1
43
0.0
10
-222.55000000000001
20
-4.6187500000000004
10
-222.55000000000001
20
9.3812499999999979
10
-208.55000000000001
20
9.3812499999999996
10
-208.55000000000001
20
-4.6187499999999995
0
LWPOLYLINE
5
125
100
AcDbEntity
8
0
100
AcDbPolyline
90
4
70
1
43
0.0
10
-241.60000000000002
20
0.14374999999999999
10
-241.60000000000002
20
14.143750000000001
10
-227.60000000000002
20
14.143750000000001
10
-227.60000000000002
20
0.14375000000000027
0
LWPOLYLINE
5
126
100
AcDbEntity
8
0
100
AcDbPolyline
90
4
70
1
43
0.0
10
-260.65000000000003
20
-7.0000000000000009
10
-260.65000000000003
20
7.0000000000000009
10
-246.65000000000003
20
7.0000000000000009
10
-246.65000000000003
20
-7.0000000000000009
0
LWPOLYLINE
5
127
100
AcDbEntity
8
0
100
AcDbPolyline
90
4
70
1
43
0.0
10
-241.60000000000002
20
-18.90625
10
-241.60000000000002
20
-4.9062500000000009
10
-227.60000000000002
20
-4.90625
10
-227.60000000000002
20
-18.90625
0
LWPOLYLINE
5
128
100
AcDbEntity
8
0
100
AcDbPolyline
90
4
70
1
43
0.0
10
-146.35000000000002
20
-16.717500000000012
10
-132.34999999999999
20
-16.717500000000012
10
-132.34999999999999
20
-30.717500000000008
10
-146.35000000000002
20
-30.717500000000008
0
LWPOLYLINE
5
129
100
AcDbEntity
8
0
100
AcDbPolyline
90
4
70
1
43
0.0
10
-222.55000000000001
20
-28.623750000000008
10
-208.55000000000001
20
-28.623750000000008
10
-208.55000000000001
20
-42.623750000000015
10
-222.55000000000001
20
-42.623750000000015
0
LWPOLYLINE
5
130
100
AcDbEntity
8
0
100
AcDbPolyline
90
4
70
1
43
0.0
10
-241.59999999999999
20
-23.861250000000005
10
-227.60000000000002
20
-23.861250000000005
10
-227.60000000000002
20
-37.861250000000013
10
-241.59999999999999
20
-37.861250000000013
0
LWPOLYLINE
5
131
100
AcDbEntity
8
0
100
AcDbPolyline
90
4
70
1
43
0.0
10
-165.39999999999998
20
-26.242500000000007
10
-151.40000000000001
20
-26.242500000000007
10
-151.40000000000001
20
-40.242500000000014
10
-165.39999999999998
20
-40.242500000000014
0
LWPOLYLINE
5
132
100
AcDbEntity
8
0
100
AcDbPolyline
90
4
70
1
43
0.0
10
-203.5
20
-31.00500000000001
10
-189.5
20
-31.00500000000001
10
-189.5
20
-45.005000000000017
10
-203.5
20
-45.005000000000017
0
LWPOLYLINE
5
133
100
AcDbEntity
8
0
100
AcDbPolyline
90
4
70
1
43
0.0
10
-260.65000000000003
20
-11.955000000000009
10
-246.65000000000003
20
-11.955000000000009
10
-246.64999999999998
20
-25.955000000000013
10
-260.65000000000003
20
-25.955000000000013
0
LWPOLYLINE
5
134
100
AcDbEntity
8
0
100
AcDbPolyline
90
4
70
1
43
0.0
10
-184.44999999999999
20
-28.623750000000008
10
-170.45000000000002
20
-28.623750000000008
10
-170.45000000000002
20
-42.623750000000015
10
-184.44999999999999
20
-42.623750000000015
0
ENDSEC
0
SECTION
2
OBJECTS
0
DICTIONARY
5
C
100
AcDbDictionary
3
ACAD_GROUP
350
D
3
ACAD_MLINESTYLE
350
17
0
DICTIONARY
5
D
100
AcDbDictionary
0
DICTIONARY
5
1A
330
C
100
AcDbDictionary
0
DICTIONARY
5
17
100
AcDbDictionary
0
ENDSEC
0
EOF
