999
DXF R12 generated by Leathercraft CAD v2.6.2.
0
SECTION
2
HEADER
9
$ACADVER
1
AC1009
0
ENDSEC
0
SECTION
2
ENTITIES
0
LINE
8
Layer 1
10
-25.000
20
-35.000
11
-25.000
21
-55.000
0
LINE
8
Layer 1
10
-25.000
20
-55.000
11
50.000
21
-55.000
0
LINE
8
Layer 1
10
50.000
20
-55.000
11
50.000
21
-60.000
0
LINE
8
Layer 1
10
50.000
20
-60.000
11
200.000
21
-60.000
0
LINE
8
Layer 1
10
200.000
20
-60.000
11
250.000
21
-55.000
0
LINE
8
Layer 1
10
250.000
20
-55.000
11
250.000
21
-35.000
0
LINE
8
Layer 1
10
250.000
20
-35.000
11
200.000
21
-30.000
0
LINE
8
Layer 1
10
200.000
20
-30.000
11
50.000
21
-30.000
0
LINE
8
Layer 1
10
50.000
20
-30.000
11
50.000
21
-35.000
0
LINE
8
Layer 1
10
50.000
20
-35.000
11
-25.000
21
-35.000
0
CIRCLE
8
Layer 1
10
240.000
20
-45.000
40
0.500
0
CIRCLE
8
Layer 1
10
175.000
20
-45.000
40
0.500
0
LINE
8
Layer 1
10
50.000
20
-57.000
11
200.000
21
-57.000
0
LINE
8
Layer 1
10
249.702
20
-52.015
11
199.702
21
-57.015
0
LINE
8
Layer 1
10
247.000
20
-35.000
11
247.000
21
-55.000
0
LINE
8
Layer 1
10
249.702
20
-37.985
11
199.702
21
-32.985
0
LINE
8
Layer 1
10
50.000
20
-33.000
11
200.000
21
-33.000
0
LINE
8
Layer 1
10
53.000
20
-60.000
11
53.000
21
-55.000
0
LINE
8
Layer 1
10
-25.000
20
-52.000
11
50.000
21
-52.000
0
LINE
8
Layer 1
10
53.000
20
-30.000
11
53.000
21
-35.000
0
LINE
8
Layer 1
10
50.000
20
-38.000
11
-25.000
21
-38.000
0
LINE
8
Layer 1
10
-22.000
20
-35.000
11
-22.000
21
-55.000
0
LINE
8
Layer 1
10
-22.619
20
-38.795
11
-22.795
21
-38.619
0
LINE
8
Layer 1
10
-22.795
20
-38.619
11
-21.381
21
-37.205
0
LINE
8
Layer 1
10
-21.381
20
-37.205
11
-21.205
21
-37.381
0
LINE
8
Layer 1
10
-21.205
20
-37.381
11
-22.619
21
-38.795
0
LINE
8
Layer 1
10
-19.239
20
-38.795
11
-19.415
21
-38.619
0
LINE
8
Layer 1
10
-19.415
20
-38.619
11
-18.001
21
-37.205
0
LINE
8
Layer 1
10
-18.001
20
-37.205
11
-17.825
21
-37.381
0
LINE
8
Layer 1
10
-17.825
20
-37.381
11
-19.239
21
-38.795
0
LINE
8
Layer 1
10
-15.859
20
-38.795
11
-16.035
21
-38.619
0
LINE
8
Layer 1
10
-16.035
20
-38.619
11
-14.621
21
-37.205
0
LINE
8
Layer 1
10
-14.621
20
-37.205
11
-14.445
21
-37.381
0
LINE
8
Layer 1
10
-14.445
20
-37.381
11
-15.859
21
-38.795
0
LINE
8
Layer 1
10
-12.479
20
-38.795
11
-12.655
21
-38.619
0
LINE
8
Layer 1
10
-12.655
20
-38.619
11
-11.241
21
-37.205
0
LINE
8
Layer 1
10
-11.241
20
-37.205
11
-11.065
21
-37.381
0
LINE
8
Layer 1
10
-11.065
20
-37.381
11
-12.479
21
-38.795
0
LINE
8
Layer 1
10
-9.099
20
-38.795
11
-9.275
21
-38.619
0
LINE
8
Layer 1
10
-9.275
20
-38.619
11
-7.861
21
-37.205
0
LINE
8
Layer 1
10
-7.861
20
-37.205
11
-7.685
21
-37.381
0
LINE
8
Layer 1
10
-7.685
20
-37.381
11
-9.099
21
-38.795
0
LINE
8
Layer 1
10
-5.719
20
-38.795
11
-5.895
21
-38.619
0
LINE
8
Layer 1
10
-5.895
20
-38.619
11
-4.481
21
-37.205
0
LINE
8
Layer 1
10
-4.481
20
-37.205
11
-4.305
21
-37.381
0
LINE
8
Layer 1
10
-4.305
20
-37.381
11
-5.719
21
-38.795
0
LINE
8
Layer 1
10
-2.339
20
-38.795
11
-2.515
21
-38.619
0
LINE
8
Layer 1
10
-2.515
20
-38.619
11
-1.101
21
-37.205
0
LINE
8
Layer 1
10
-1.101
20
-37.205
11
-0.925
21
-37.381
0
LINE
8
Layer 1
10
-0.925
20
-37.381
11
-2.339
21
-38.795
0
LINE
8
Layer 1
10
1.041
20
-38.795
11
0.865
21
-38.619
0
LINE
8
Layer 1
10
0.865
20
-38.619
11
2.279
21
-37.205
0
LINE
8
Layer 1
10
2.279
20
-37.205
11
2.455
21
-37.381
0
LINE
8
Layer 1
10
2.455
20
-37.381
11
1.041
21
-38.795
0
LINE
8
Layer 1
10
4.421
20
-38.795
11
4.245
21
-38.619
0
LINE
8
Layer 1
10
4.245
20
-38.619
11
5.659
21
-37.205
0
LINE
8
Layer 1
10
5.659
20
-37.205
11
5.835
21
-37.381
0
LINE
8
Layer 1
10
5.835
20
-37.381
11
4.421
21
-38.795
0
LINE
8
Layer 1
10
7.801
20
-38.795
11
7.625
21
-38.619
0
LINE
8
Layer 1
10
7.625
20
-38.619
11
9.039
21
-37.205
0
LINE
8
Layer 1
10
9.039
20
-37.205
11
9.215
21
-37.381
0
LINE
8
Layer 1
10
9.215
20
-37.381
11
7.801
21
-38.795
0
LINE
8
Layer 1
10
11.181
20
-38.795
11
11.005
21
-38.619
0
LINE
8
Layer 1
10
11.005
20
-38.619
11
12.419
21
-37.205
0
LINE
8
Layer 1
10
12.419
20
-37.205
11
12.595
21
-37.381
0
LINE
8
Layer 1
10
12.595
20
-37.381
11
11.181
21
-38.795
0
LINE
8
Layer 1
10
14.561
20
-38.795
11
14.385
21
-38.619
0
LINE
8
Layer 1
10
14.385
20
-38.619
11
15.799
21
-37.205
0
LINE
8
Layer 1
10
15.799
20
-37.205
11
15.975
21
-37.381
0
LINE
8
Layer 1
10
15.975
20
-37.381
11
14.561
21
-38.795
0
LINE
8
Layer 1
10
17.941
20
-38.795
11
17.765
21
-38.619
0
LINE
8
Layer 1
10
17.765
20
-38.619
11
19.179
21
-37.205
0
LINE
8
Layer 1
10
19.179
20
-37.205
11
19.355
21
-37.381
0
LINE
8
Layer 1
10
19.355
20
-37.381
11
17.941
21
-38.795
0
LINE
8
Layer 1
10
21.321
20
-38.795
11
21.145
21
-38.619
0
LINE
8
Layer 1
10
21.145
20
-38.619
11
22.559
21
-37.205
0
LINE
8
Layer 1
10
22.559
20
-37.205
11
22.735
21
-37.381
0
LINE
8
Layer 1
10
22.735
20
-37.381
11
21.321
21
-38.795
0
LINE
8
Layer 1
10
24.701
20
-38.795
11
24.525
21
-38.619
0
LINE
8
Layer 1
10
24.525
20
-38.619
11
25.939
21
-37.205
0
LINE
8
Layer 1
10
25.939
20
-37.205
11
26.115
21
-37.381
0
LINE
8
Layer 1
10
26.115
20
-37.381
11
24.701
21
-38.795
0
LINE
8
Layer 1
10
28.081
20
-38.795
11
27.905
21
-38.619
0
LINE
8
Layer 1
10
27.905
20
-38.619
11
29.319
21
-37.205
0
LINE
8
Layer 1
10
29.319
20
-37.205
11
29.496
21
-37.381
0
LINE
8
Layer 1
10
29.496
20
-37.381
11
28.081
21
-38.795
0
LINE
8
Layer 1
10
31.461
20
-38.795
11
31.285
21
-38.619
0
LINE
8
Layer 1
10
31.285
20
-38.619
11
32.699
21
-37.205
0
LINE
8
Layer 1
10
32.699
20
-37.205
11
32.875
21
-37.381
0
LINE
8
Layer 1
10
32.875
20
-37.381
11
31.461
21
-38.795
0
LINE
8
Layer 1
10
34.841
20
-38.795
11
34.665
21
-38.619
0
LINE
8
Layer 1
10
34.665
20
-38.619
11
36.079
21
-37.205
0
LINE
8
Layer 1
10
36.079
20
-37.205
11
36.256
21
-37.381
0
LINE
8
Layer 1
10
36.256
20
-37.381
11
34.841
21
-38.795
0
LINE
8
Layer 1
10
38.221
20
-38.795
11
38.045
21
-38.619
0
LINE
8
Layer 1
10
38.045
20
-38.619
11
39.459
21
-37.205
0
LINE
8
Layer 1
10
39.459
20
-37.205
11
39.636
21
-37.381
0
LINE
8
Layer 1
10
39.636
20
-37.381
11
38.221
21
-38.795
0
LINE
8
Layer 1
10
43.179
20
-37.205
11
43.355
21
-37.381
0
LINE
8
Layer 1
10
43.355
20
-37.381
11
41.941
21
-38.795
0
LINE
8
Layer 1
10
41.941
20
-38.795
11
41.765
21
-38.619
0
LINE
8
Layer 1
10
41.765
20
-38.619
11
43.179
21
-37.205
0
LINE
8
Layer 1
10
46.899
20
-37.205
11
47.076
21
-37.381
0
LINE
8
Layer 1
10
47.076
20
-37.381
11
45.661
21
-38.795
0
LINE
8
Layer 1
10
45.661
20
-38.795
11
45.485
21
-38.619
0
LINE
8
Layer 1
10
45.485
20
-38.619
11
46.899
21
-37.205
0
LINE
8
Layer 1
10
50.619
20
-37.205
11
50.795
21
-37.381
0
LINE
8
Layer 1
10
50.795
20
-37.381
11
49.381
21
-38.795
0
LINE
8
Layer 1
10
49.381
20
-38.795
11
49.205
21
-38.619
0
LINE
8
Layer 1
10
49.205
20
-38.619
11
50.619
21
-37.205
0
LINE
8
Layer 1
10
52.381
20
-33.795
11
52.205
21
-33.619
0
LINE
8
Layer 1
10
52.205
20
-33.619
11
53.619
21
-32.205
0
LINE
8
Layer 1
10
53.619
20
-32.205
11
53.795
21
-32.381
0
LINE
8
Layer 1
10
53.795
20
-32.381
11
52.381
21
-33.795
0
LINE
8
Layer 1
10
55.761
20
-33.795
11
55.585
21
-33.619
0
LINE
8
Layer 1
10
55.585
20
-33.619
11
56.999
21
-32.205
0
LINE
8
Layer 1
10
56.999
20
-32.205
11
57.175
21
-32.381
0
LINE
8
Layer 1
10
57.175
20
-32.381
11
55.761
21
-33.795
0
LINE
8
Layer 1
10
59.141
20
-33.795
11
58.965
21
-33.619
0
LINE
8
Layer 1
10
58.965
20
-33.619
11
60.379
21
-32.205
0
LINE
8
Layer 1
10
60.379
20
-32.205
11
60.555
21
-32.381
0
LINE
8
Layer 1
10
60.555
20
-32.381
11
59.141
21
-33.795
0
LINE
8
Layer 1
10
62.521
20
-33.795
11
62.345
21
-33.619
0
LINE
8
Layer 1
10
62.345
20
-33.619
11
63.759
21
-32.205
0
LINE
8
Layer 1
10
63.759
20
-32.205
11
63.935
21
-32.381
0
LINE
8
Layer 1
10
63.935
20
-32.381
11
62.521
21
-33.795
0
LINE
8
Layer 1
10
65.901
20
-33.795
11
65.725
21
-33.619
0
LINE
8
Layer 1
10
65.725
20
-33.619
11
67.139
21
-32.205
0
LINE
8
Layer 1
10
67.139
20
-32.205
11
67.315
21
-32.381
0
LINE
8
Layer 1
10
67.315
20
-32.381
11
65.901
21
-33.795
0
LINE
8
Layer 1
10
69.281
20
-33.795
11
69.105
21
-33.619
0
LINE
8
Layer 1
10
69.105
20
-33.619
11
70.519
21
-32.205
0
LINE
8
Layer 1
10
70.519
20
-32.205
11
70.695
21
-32.381
0
LINE
8
Layer 1
10
70.695
20
-32.381
11
69.281
21
-33.795
0
LINE
8
Layer 1
10
72.661
20
-33.795
11
72.485
21
-33.619
0
LINE
8
Layer 1
10
72.485
20
-33.619
11
73.899
21
-32.205
0
LINE
8
Layer 1
10
73.899
20
-32.205
11
74.075
21
-32.381
0
LINE
8
Layer 1
10
74.075
20
-32.381
11
72.661
21
-33.795
0
LINE
8
Layer 1
10
76.041
20
-33.795
11
75.865
21
-33.619
0
LINE
8
Layer 1
10
75.865
20
-33.619
11
77.279
21
-32.205
0
LINE
8
Layer 1
10
77.279
20
-32.205
11
77.455
21
-32.381
0
LINE
8
Layer 1
10
77.455
20
-32.381
11
76.041
21
-33.795
0
LINE
8
Layer 1
10
79.421
20
-33.795
11
79.244
21
-33.619
0
LINE
8
Layer 1
10
79.244
20
-33.619
11
80.659
21
-32.205
0
LINE
8
Layer 1
10
80.659
20
-32.205
11
80.835
21
-32.381
0
LINE
8
Layer 1
10
80.835
20
-32.381
11
79.421
21
-33.795
0
LINE
8
Layer 1
10
82.801
20
-33.795
11
82.624
21
-33.619
0
LINE
8
Layer 1
10
82.624
20
-33.619
11
84.039
21
-32.205
0
LINE
8
Layer 1
10
84.039
20
-32.205
11
84.215
21
-32.381
0
LINE
8
Layer 1
10
84.215
20
-32.381
11
82.801
21
-33.795
0
LINE
8
Layer 1
10
86.181
20
-33.795
11
86.004
21
-33.619
0
LINE
8
Layer 1
10
86.004
20
-33.619
11
87.419
21
-32.205
0
LINE
8
Layer 1
10
87.419
20
-32.205
11
87.595
21
-32.381
0
LINE
8
Layer 1
10
87.595
20
-32.381
11
86.181
21
-33.795
0
LINE
8
Layer 1
10
89.561
20
-33.795
11
89.384
21
-33.619
0
LINE
8
Layer 1
10
89.384
20
-33.619
11
90.799
21
-32.205
0
LINE
8
Layer 1
10
90.799
20
-32.205
11
90.975
21
-32.381
0
LINE
8
Layer 1
10
90.975
20
-32.381
11
89.561
21
-33.795
0
LINE
8
Layer 1
10
92.941
20
-33.795
11
92.764
21
-33.619
0
LINE
8
Layer 1
10
92.764
20
-33.619
11
94.179
21
-32.205
0
LINE
8
Layer 1
10
94.179
20
-32.205
11
94.355
21
-32.381
0
LINE
8
Layer 1
10
94.355
20
-32.381
11
92.941
21
-33.795
0
LINE
8
Layer 1
10
96.321
20
-33.795
11
96.144
21
-33.619
0
LINE
8
Layer 1
10
96.144
20
-33.619
11
97.559
21
-32.205
0
LINE
8
Layer 1
10
97.559
20
-32.205
11
97.735
21
-32.381
0
LINE
8
Layer 1
10
97.735
20
-32.381
11
96.321
21
-33.795
0
LINE
8
Layer 1
10
99.701
20
-33.795
11
99.524
21
-33.619
0
LINE
8
Layer 1
10
99.524
20
-33.619
11
100.939
21
-32.205
0
LINE
8
Layer 1
10
100.939
20
-32.205
11
101.115
21
-32.381
0
LINE
8
Layer 1
10
101.115
20
-32.381
11
99.701
21
-33.795
0
LINE
8
Layer 1
10
103.081
20
-33.795
11
102.904
21
-33.619
0
LINE
8
Layer 1
10
102.904
20
-33.619
11
104.319
21
-32.205
0
LINE
8
Layer 1
10
104.319
20
-32.205
11
104.495
21
-32.381
0
LINE
8
Layer 1
10
104.495
20
-32.381
11
103.081
21
-33.795
0
LINE
8
Layer 1
10
106.461
20
-33.795
11
106.284
21
-33.619
0
LINE
8
Layer 1
10
106.284
20
-33.619
11
107.699
21
-32.205
0
LINE
8
Layer 1
10
107.699
20
-32.205
11
107.875
21
-32.381
0
LINE
8
Layer 1
10
107.875
20
-32.381
11
106.461
21
-33.795
0
LINE
8
Layer 1
10
109.841
20
-33.795
11
109.664
21
-33.619
0
LINE
8
Layer 1
10
109.664
20
-33.619
11
111.079
21
-32.205
0
LINE
8
Layer 1
10
111.079
20
-32.205
11
111.255
21
-32.381
0
LINE
8
Layer 1
10
111.255
20
-32.381
11
109.841
21
-33.795
0
LINE
8
Layer 1
10
113.221
20
-33.795
11
113.044
21
-33.619
0
LINE
8
Layer 1
10
113.044
20
-33.619
11
114.459
21
-32.205
0
LINE
8
Layer 1
10
114.459
20
-32.205
11
114.635
21
-32.381
0
LINE
8
Layer 1
10
114.635
20
-32.381
11
113.221
21
-33.795
0
LINE
8
Layer 1
10
116.601
20
-33.795
11
116.424
21
-33.619
0
LINE
8
Layer 1
10
116.424
20
-33.619
11
117.839
21
-32.205
0
LINE
8
Layer 1
10
117.839
20
-32.205
11
118.015
21
-32.381
0
LINE
8
Layer 1
10
118.015
20
-32.381
11
116.601
21
-33.795
0
LINE
8
Layer 1
10
119.981
20
-33.795
11
119.804
21
-33.619
0
LINE
8
Layer 1
10
119.804
20
-33.619
11
121.219
21
-32.205
0
LINE
8
Layer 1
10
121.219
20
-32.205
11
121.395
21
-32.381
0
LINE
8
Layer 1
10
121.395
20
-32.381
11
119.981
21
-33.795
0
LINE
8
Layer 1
10
123.361
20
-33.795
11
123.184
21
-33.619
0
LINE
8
Layer 1
10
123.184
20
-33.619
11
124.599
21
-32.205
0
LINE
8
Layer 1
10
124.599
20
-32.205
11
124.775
21
-32.381
0
LINE
8
Layer 1
10
124.775
20
-32.381
11
123.361
21
-33.795
0
LINE
8
Layer 1
10
126.741
20
-33.795
11
126.564
21
-33.619
0
LINE
8
Layer 1
10
126.564
20
-33.619
11
127.979
21
-32.205
0
LINE
8
Layer 1
10
127.979
20
-32.205
11
128.155
21
-32.381
0
LINE
8
Layer 1
10
128.155
20
-32.381
11
126.741
21
-33.795
0
LINE
8
Layer 1
10
130.121
20
-33.795
11
129.944
21
-33.619
0
LINE
8
Layer 1
10
129.944
20
-33.619
11
131.359
21
-32.205
0
LINE
8
Layer 1
10
131.359
20
-32.205
11
131.535
21
-32.381
0
LINE
8
Layer 1
10
131.535
20
-32.381
11
130.121
21
-33.795
0
LINE
8
Layer 1
10
133.501
20
-33.795
11
133.324
21
-33.619
0
LINE
8
Layer 1
10
133.324
20
-33.619
11
134.739
21
-32.205
0
LINE
8
Layer 1
10
134.739
20
-32.205
11
134.915
21
-32.381
0
LINE
8
Layer 1
10
134.915
20
-32.381
11
133.501
21
-33.795
0
LINE
8
Layer 1
10
136.881
20
-33.795
11
136.704
21
-33.619
0
LINE
8
Layer 1
10
136.704
20
-33.619
11
138.119
21
-32.205
0
LINE
8
Layer 1
10
138.119
20
-32.205
11
138.295
21
-32.381
0
LINE
8
Layer 1
10
138.295
20
-32.381
11
136.881
21
-33.795
0
LINE
8
Layer 1
10
140.261
20
-33.795
11
140.084
21
-33.619
0
LINE
8
Layer 1
10
140.084
20
-33.619
11
141.499
21
-32.205
0
LINE
8
Layer 1
10
141.499
20
-32.205
11
141.675
21
-32.381
0
LINE
8
Layer 1
10
141.675
20
-32.381
11
140.261
21
-33.795
0
LINE
8
Layer 1
10
143.641
20
-33.795
11
143.464
21
-33.619
0
LINE
8
Layer 1
10
143.464
20
-33.619
11
144.879
21
-32.205
0
LINE
8
Layer 1
10
144.879
20
-32.205
11
145.055
21
-32.381
0
LINE
8
Layer 1
10
145.055
20
-32.381
11
143.641
21
-33.795
0
LINE
8
Layer 1
10
147.021
20
-33.795
11
146.844
21
-33.619
0
LINE
8
Layer 1
10
146.844
20
-33.619
11
148.259
21
-32.205
0
LINE
8
Layer 1
10
148.259
20
-32.205
11
148.435
21
-32.381
0
LINE
8
Layer 1
10
148.435
20
-32.381
11
147.021
21
-33.795
0
LINE
8
Layer 1
10
150.401
20
-33.795
11
150.224
21
-33.619
0
LINE
8
Layer 1
10
150.224
20
-33.619
11
151.639
21
-32.205
0
LINE
8
Layer 1
10
151.639
20
-32.205
11
151.815
21
-32.381
0
LINE
8
Layer 1
10
151.815
20
-32.381
11
150.401
21
-33.795
0
LINE
8
Layer 1
10
153.781
20
-33.795
11
153.604
21
-33.619
0
LINE
8
Layer 1
10
153.604
20
-33.619
11
155.019
21
-32.205
0
LINE
8
Layer 1
10
155.019
20
-32.205
11
155.195
21
-32.381
0
LINE
8
Layer 1
10
155.195
20
-32.381
11
153.781
21
-33.795
0
LINE
8
Layer 1
10
157.161
20
-33.795
11
156.984
21
-33.619
0
LINE
8
Layer 1
10
156.984
20
-33.619
11
158.399
21
-32.205
0
LINE
8
Layer 1
10
158.399
20
-32.205
11
158.576
21
-32.381
0
LINE
8
Layer 1
10
158.576
20
-32.381
11
157.161
21
-33.795
0
LINE
8
Layer 1
10
160.541
20
-33.795
11
160.365
21
-33.619
0
LINE
8
Layer 1
10
160.365
20
-33.619
11
161.779
21
-32.205
0
LINE
8
Layer 1
10
161.779
20
-32.205
11
161.956
21
-32.381
0
LINE
8
Layer 1
10
161.956
20
-32.381
11
160.541
21
-33.795
0
LINE
8
Layer 1
10
163.921
20
-33.795
11
163.745
21
-33.619
0
LINE
8
Layer 1
10
163.745
20
-33.619
11
165.159
21
-32.205
0
LINE
8
Layer 1
10
165.159
20
-32.205
11
165.336
21
-32.381
0
LINE
8
Layer 1
10
165.336
20
-32.381
11
163.921
21
-33.795
0
LINE
8
Layer 1
10
167.301
20
-33.795
11
167.125
21
-33.619
0
LINE
8
Layer 1
10
167.125
20
-33.619
11
168.539
21
-32.205
0
LINE
8
Layer 1
10
168.539
20
-32.205
11
168.716
21
-32.381
0
LINE
8
Layer 1
10
168.716
20
-32.381
11
167.301
21
-33.795
0
LINE
8
Layer 1
10
170.681
20
-33.795
11
170.505
21
-33.619
0
LINE
8
Layer 1
10
170.505
20
-33.619
11
171.919
21
-32.205
0
LINE
8
Layer 1
10
171.919
20
-32.205
11
172.096
21
-32.381
0
LINE
8
Layer 1
10
172.096
20
-32.381
11
170.681
21
-33.795
0
LINE
8
Layer 1
10
174.061
20
-33.795
11
173.885
21
-33.619
0
LINE
8
Layer 1
10
173.885
20
-33.619
11
175.299
21
-32.205
0
LINE
8
Layer 1
10
175.299
20
-32.205
11
175.476
21
-32.381
0
LINE
8
Layer 1
10
175.476
20
-32.381
11
174.061
21
-33.795
0
LINE
8
Layer 1
10
177.678
20
-33.795
11
177.502
21
-33.619
0
LINE
8
Layer 1
10
177.502
20
-33.619
11
178.916
21
-32.205
0
LINE
8
Layer 1
10
178.916
20
-32.205
11
179.093
21
-32.381
0
LINE
8
Layer 1
10
179.093
20
-32.381
11
177.678
21
-33.795
0
LINE
8
Layer 1
10
181.296
20
-33.795
11
181.119
21
-33.619
0
LINE
8
Layer 1
10
181.119
20
-33.619
11
182.533
21
-32.205
0
LINE
8
Layer 1
10
182.533
20
-32.205
11
182.710
21
-32.381
0
LINE
8
Layer 1
10
182.710
20
-32.381
11
181.296
21
-33.795
0
LINE
8
Layer 1
10
184.913
20
-33.795
11
184.736
21
-33.619
0
LINE
8
Layer 1
10
184.736
20
-33.619
11
186.150
21
-32.205
0
LINE
8
Layer 1
10
186.150
20
-32.205
11
186.327
21
-32.381
0
LINE
8
Layer 1
10
186.327
20
-32.381
11
184.913
21
-33.795
0
LINE
8
Layer 1
10
188.530
20
-33.795
11
188.353
21
-33.619
0
LINE
8
Layer 1
10
188.353
20
-33.619
11
189.767
21
-32.205
0
LINE
8
Layer 1
10
189.767
20
-32.205
11
189.944
21
-32.381
0
LINE
8
Layer 1
10
189.944
20
-32.381
11
188.530
21
-33.795
0
LINE
8
Layer 1
10
192.147
20
-33.795
11
191.970
21
-33.619
0
LINE
8
Layer 1
10
191.970
20
-33.619
11
193.384
21
-32.205
0
LINE
8
Layer 1
10
193.384
20
-32.205
11
193.561
21
-32.381
0
LINE
8
Layer 1
10
193.561
20
-32.381
11
192.147
21
-33.795
0
LINE
8
Layer 1
10
195.764
20
-33.795
11
195.587
21
-33.619
0
LINE
8
Layer 1
10
195.587
20
-33.619
11
197.001
21
-32.205
0
LINE
8
Layer 1
10
197.001
20
-32.205
11
197.178
21
-32.381
0
LINE
8
Layer 1
10
197.178
20
-32.381
11
195.764
21
-33.795
0
LINE
8
Layer 1
10
199.381
20
-33.795
11
199.204
21
-33.619
0
LINE
8
Layer 1
10
199.204
20
-33.619
11
200.619
21
-32.205
0
LINE
8
Layer 1
10
200.619
20
-32.205
11
200.796
21
-32.381
0
LINE
8
Layer 1
10
200.796
20
-32.381
11
199.381
21
-33.795
0
LINE
8
Layer 1
10
52.381
20
-57.795
11
52.205
21
-57.619
0
LINE
8
Layer 1
10
52.205
20
-57.619
11
53.619
21
-56.205
0
LINE
8
Layer 1
10
53.619
20
-56.205
11
53.795
21
-56.381
0
LINE
8
Layer 1
10
53.795
20
-56.381
11
52.381
21
-57.795
0
LINE
8
Layer 1
10
55.761
20
-57.795
11
55.585
21
-57.619
0
LINE
8
Layer 1
10
55.585
20
-57.619
11
56.999
21
-56.205
0
LINE
8
Layer 1
10
56.999
20
-56.205
11
57.175
21
-56.381
0
LINE
8
Layer 1
10
57.175
20
-56.381
11
55.761
21
-57.795
0
LINE
8
Layer 1
10
59.141
20
-57.795
11
58.965
21
-57.619
0
LINE
8
Layer 1
10
58.965
20
-57.619
11
60.379
21
-56.205
0
LINE
8
Layer 1
10
60.379
20
-56.205
11
60.555
21
-56.381
0
LINE
8
Layer 1
10
60.555
20
-56.381
11
59.141
21
-57.795
0
LINE
8
Layer 1
10
62.521
20
-57.795
11
62.345
21
-57.619
0
LINE
8
Layer 1
10
62.345
20
-57.619
11
63.759
21
-56.205
0
LINE
8
Layer 1
10
63.759
20
-56.205
11
63.935
21
-56.381
0
LINE
8
Layer 1
10
63.935
20
-56.381
11
62.521
21
-57.795
0
LINE
8
Layer 1
10
65.901
20
-57.795
11
65.725
21
-57.619
0
LINE
8
Layer 1
10
65.725
20
-57.619
11
67.139
21
-56.205
0
LINE
8
Layer 1
10
67.139
20
-56.205
11
67.315
21
-56.381
0
LINE
8
Layer 1
10
67.315
20
-56.381
11
65.901
21
-57.795
0
LINE
8
Layer 1
10
69.281
20
-57.795
11
69.105
21
-57.619
0
LINE
8
Layer 1
10
69.105
20
-57.619
11
70.519
21
-56.205
0
LINE
8
Layer 1
10
70.519
20
-56.205
11
70.695
21
-56.381
0
LINE
8
Layer 1
10
70.695
20
-56.381
11
69.281
21
-57.795
0
LINE
8
Layer 1
10
72.661
20
-57.795
11
72.485
21
-57.619
0
LINE
8
Layer 1
10
72.485
20
-57.619
11
73.899
21
-56.205
0
LINE
8
Layer 1
10
73.899
20
-56.205
11
74.075
21
-56.381
0
LINE
8
Layer 1
10
74.075
20
-56.381
11
72.661
21
-57.795
0
LINE
8
Layer 1
10
76.041
20
-57.795
11
75.865
21
-57.619
0
LINE
8
Layer 1
10
75.865
20
-57.619
11
77.279
21
-56.205
0
LINE
8
Layer 1
10
77.279
20
-56.205
11
77.455
21
-56.381
0
LINE
8
Layer 1
10
77.455
20
-56.381
11
76.041
21
-57.795
0
LINE
8
Layer 1
10
79.421
20
-57.795
11
79.244
21
-57.619
0
LINE
8
Layer 1
10
79.244
20
-57.619
11
80.659
21
-56.205
0
LINE
8
Layer 1
10
80.659
20
-56.205
11
80.835
21
-56.381
0
LINE
8
Layer 1
10
80.835
20
-56.381
11
79.421
21
-57.795
0
LINE
8
Layer 1
10
82.801
20
-57.795
11
82.624
21
-57.619
0
LINE
8
Layer 1
10
82.624
20
-57.619
11
84.039
21
-56.205
0
LINE
8
Layer 1
10
84.039
20
-56.205
11
84.215
21
-56.381
0
LINE
8
Layer 1
10
84.215
20
-56.381
11
82.801
21
-57.795
0
LINE
8
Layer 1
10
86.181
20
-57.795
11
86.004
21
-57.619
0
LINE
8
Layer 1
10
86.004
20
-57.619
11
87.419
21
-56.205
0
LINE
8
Layer 1
10
87.419
20
-56.205
11
87.595
21
-56.381
0
LINE
8
Layer 1
10
87.595
20
-56.381
11
86.181
21
-57.795
0
LINE
8
Layer 1
10
89.561
20
-57.795
11
89.384
21
-57.619
0
LINE
8
Layer 1
10
89.384
20
-57.619
11
90.799
21
-56.205
0
LINE
8
Layer 1
10
90.799
20
-56.205
11
90.975
21
-56.381
0
LINE
8
Layer 1
10
90.975
20
-56.381
11
89.561
21
-57.795
0
LINE
8
Layer 1
10
92.941
20
-57.795
11
92.764
21
-57.619
0
LINE
8
Layer 1
10
92.764
20
-57.619
11
94.179
21
-56.205
0
LINE
8
Layer 1
10
94.179
20
-56.205
11
94.355
21
-56.381
0
LINE
8
Layer 1
10
94.355
20
-56.381
11
92.941
21
-57.795
0
LINE
8
Layer 1
10
96.321
20
-57.795
11
96.144
21
-57.619
0
LINE
8
Layer 1
10
96.144
20
-57.619
11
97.559
21
-56.205
0
LINE
8
Layer 1
10
97.559
20
-56.205
11
97.735
21
-56.381
0
LINE
8
Layer 1
10
97.735
20
-56.381
11
96.321
21
-57.795
0
LINE
8
Layer 1
10
99.701
20
-57.795
11
99.524
21
-57.619
0
LINE
8
Layer 1
10
99.524
20
-57.619
11
100.939
21
-56.205
0
LINE
8
Layer 1
10
100.939
20
-56.205
11
101.115
21
-56.381
0
LINE
8
Layer 1
10
101.115
20
-56.381
11
99.701
21
-57.795
0
LINE
8
Layer 1
10
103.081
20
-57.795
11
102.904
21
-57.619
0
LINE
8
Layer 1
10
102.904
20
-57.619
11
104.319
21
-56.205
0
LINE
8
Layer 1
10
104.319
20
-56.205
11
104.495
21
-56.381
0
LINE
8
Layer 1
10
104.495
20
-56.381
11
103.081
21
-57.795
0
LINE
8
Layer 1
10
106.461
20
-57.795
11
106.284
21
-57.619
0
LINE
8
Layer 1
10
106.284
20
-57.619
11
107.699
21
-56.205
0
LINE
8
Layer 1
10
107.699
20
-56.205
11
107.875
21
-56.381
0
LINE
8
Layer 1
10
107.875
20
-56.381
11
106.461
21
-57.795
0
LINE
8
Layer 1
10
109.841
20
-57.795
11
109.664
21
-57.619
0
LINE
8
Layer 1
10
109.664
20
-57.619
11
111.079
21
-56.205
0
LINE
8
Layer 1
10
111.079
20
-56.205
11
111.255
21
-56.381
0
LINE
8
Layer 1
10
111.255
20
-56.381
11
109.841
21
-57.795
0
LINE
8
Layer 1
10
113.221
20
-57.795
11
113.044
21
-57.619
0
LINE
8
Layer 1
10
113.044
20
-57.619
11
114.459
21
-56.205
0
LINE
8
Layer 1
10
114.459
20
-56.205
11
114.635
21
-56.381
0
LINE
8
Layer 1
10
114.635
20
-56.381
11
113.221
21
-57.795
0
LINE
8
Layer 1
10
116.601
20
-57.795
11
116.424
21
-57.619
0
LINE
8
Layer 1
10
116.424
20
-57.619
11
117.839
21
-56.205
0
LINE
8
Layer 1
10
117.839
20
-56.205
11
118.015
21
-56.381
0
LINE
8
Layer 1
10
118.015
20
-56.381
11
116.601
21
-57.795
0
LINE
8
Layer 1
10
119.981
20
-57.795
11
119.804
21
-57.619
0
LINE
8
Layer 1
10
119.804
20
-57.619
11
121.219
21
-56.205
0
LINE
8
Layer 1
10
121.219
20
-56.205
11
121.395
21
-56.381
0
LINE
8
Layer 1
10
121.395
20
-56.381
11
119.981
21
-57.795
0
LINE
8
Layer 1
10
123.361
20
-57.795
11
123.184
21
-57.619
0
LINE
8
Layer 1
10
123.184
20
-57.619
11
124.599
21
-56.205
0
LINE
8
Layer 1
10
124.599
20
-56.205
11
124.775
21
-56.381
0
LINE
8
Layer 1
10
124.775
20
-56.381
11
123.361
21
-57.795
0
LINE
8
Layer 1
10
126.741
20
-57.795
11
126.564
21
-57.619
0
LINE
8
Layer 1
10
126.564
20
-57.619
11
127.979
21
-56.205
0
LINE
8
Layer 1
10
127.979
20
-56.205
11
128.155
21
-56.381
0
LINE
8
Layer 1
10
128.155
20
-56.381
11
126.741
21
-57.795
0
LINE
8
Layer 1
10
130.121
20
-57.795
11
129.944
21
-57.619
0
LINE
8
Layer 1
10
129.944
20
-57.619
11
131.359
21
-56.205
0
LINE
8
Layer 1
10
131.359
20
-56.205
11
131.535
21
-56.381
0
LINE
8
Layer 1
10
131.535
20
-56.381
11
130.121
21
-57.795
0
LINE
8
Layer 1
10
133.501
20
-57.795
11
133.324
21
-57.619
0
LINE
8
Layer 1
10
133.324
20
-57.619
11
134.739
21
-56.205
0
LINE
8
Layer 1
10
134.739
20
-56.205
11
134.915
21
-56.381
0
LINE
8
Layer 1
10
134.915
20
-56.381
11
133.501
21
-57.795
0
LINE
8
Layer 1
10
136.881
20
-57.795
11
136.704
21
-57.619
0
LINE
8
Layer 1
10
136.704
20
-57.619
11
138.119
21
-56.205
0
LINE
8
Layer 1
10
138.119
20
-56.205
11
138.295
21
-56.381
0
LINE
8
Layer 1
10
138.295
20
-56.381
11
136.881
21
-57.795
0
LINE
8
Layer 1
10
140.261
20
-57.795
11
140.084
21
-57.619
0
LINE
8
Layer 1
10
140.084
20
-57.619
11
141.499
21
-56.205
0
LINE
8
Layer 1
10
141.499
20
-56.205
11
141.675
21
-56.381
0
LINE
8
Layer 1
10
141.675
20
-56.381
11
140.261
21
-57.795
0
LINE
8
Layer 1
10
143.641
20
-57.795
11
143.464
21
-57.619
0
LINE
8
Layer 1
10
143.464
20
-57.619
11
144.879
21
-56.205
0
LINE
8
Layer 1
10
144.879
20
-56.205
11
145.055
21
-56.381
0
LINE
8
Layer 1
10
145.055
20
-56.381
11
143.641
21
-57.795
0
LINE
8
Layer 1
10
147.021
20
-57.795
11
146.844
21
-57.619
0
LINE
8
Layer 1
10
146.844
20
-57.619
11
148.259
21
-56.205
0
LINE
8
Layer 1
10
148.259
20
-56.205
11
148.435
21
-56.381
0
LINE
8
Layer 1
10
148.435
20
-56.381
11
147.021
21
-57.795
0
LINE
8
Layer 1
10
150.401
20
-57.795
11
150.224
21
-57.619
0
LINE
8
Layer 1
10
150.224
20
-57.619
11
151.639
21
-56.205
0
LINE
8
Layer 1
10
151.639
20
-56.205
11
151.815
21
-56.381
0
LINE
8
Layer 1
10
151.815
20
-56.381
11
150.401
21
-57.795
0
LINE
8
Layer 1
10
153.781
20
-57.795
11
153.604
21
-57.619
0
LINE
8
Layer 1
10
153.604
20
-57.619
11
155.019
21
-56.205
0
LINE
8
Layer 1
10
155.019
20
-56.205
11
155.195
21
-56.381
0
LINE
8
Layer 1
10
155.195
20
-56.381
11
153.781
21
-57.795
0
LINE
8
Layer 1
10
157.161
20
-57.795
11
156.984
21
-57.619
0
LINE
8
Layer 1
10
156.984
20
-57.619
11
158.399
21
-56.205
0
LINE
8
Layer 1
10
158.399
20
-56.205
11
158.576
21
-56.381
0
LINE
8
Layer 1
10
158.576
20
-56.381
11
157.161
21
-57.795
0
LINE
8
Layer 1
10
160.541
20
-57.795
11
160.365
21
-57.619
0
LINE
8
Layer 1
10
160.365
20
-57.619
11
161.779
21
-56.205
0
LINE
8
Layer 1
10
161.779
20
-56.205
11
161.956
21
-56.381
0
LINE
8
Layer 1
10
161.956
20
-56.381
11
160.541
21
-57.795
0
LINE
8
Layer 1
10
163.921
20
-57.795
11
163.745
21
-57.619
0
LINE
8
Layer 1
10
163.745
20
-57.619
11
165.159
21
-56.205
0
LINE
8
Layer 1
10
165.159
20
-56.205
11
165.336
21
-56.381
0
LINE
8
Layer 1
10
165.336
20
-56.381
11
163.921
21
-57.795
0
LINE
8
Layer 1
10
167.301
20
-57.795
11
167.125
21
-57.619
0
LINE
8
Layer 1
10
167.125
20
-57.619
11
168.539
21
-56.205
0
LINE
8
Layer 1
10
168.539
20
-56.205
11
168.716
21
-56.381
0
LINE
8
Layer 1
10
168.716
20
-56.381
11
167.301
21
-57.795
0
LINE
8
Layer 1
10
170.681
20
-57.795
11
170.505
21
-57.619
0
LINE
8
Layer 1
10
170.505
20
-57.619
11
171.919
21
-56.205
0
LINE
8
Layer 1
10
171.919
20
-56.205
11
172.096
21
-56.381
0
LINE
8
Layer 1
10
172.096
20
-56.381
11
170.681
21
-57.795
0
LINE
8
Layer 1
10
174.061
20
-57.795
11
173.885
21
-57.619
0
LINE
8
Layer 1
10
173.885
20
-57.619
11
175.299
21
-56.205
0
LINE
8
Layer 1
10
175.299
20
-56.205
11
175.476
21
-56.381
0
LINE
8
Layer 1
10
175.476
20
-56.381
11
174.061
21
-57.795
0
LINE
8
Layer 1
10
177.678
20
-57.795
11
177.502
21
-57.619
0
LINE
8
Layer 1
10
177.502
20
-57.619
11
178.916
21
-56.205
0
LINE
8
Layer 1
10
178.916
20
-56.205
11
179.093
21
-56.381
0
LINE
8
Layer 1
10
179.093
20
-56.381
11
177.678
21
-57.795
0
LINE
8
Layer 1
10
181.296
20
-57.795
11
181.119
21
-57.619
0
LINE
8
Layer 1
10
181.119
20
-57.619
11
182.533
21
-56.205
0
LINE
8
Layer 1
10
182.533
20
-56.205
11
182.710
21
-56.381
0
LINE
8
Layer 1
10
182.710
20
-56.381
11
181.296
21
-57.795
0
LINE
8
Layer 1
10
184.913
20
-57.795
11
184.736
21
-57.619
0
LINE
8
Layer 1
10
184.736
20
-57.619
11
186.150
21
-56.205
0
LINE
8
Layer 1
10
186.150
20
-56.205
11
186.327
21
-56.381
0
LINE
8
Layer 1
10
186.327
20
-56.381
11
184.913
21
-57.795
0
LINE
8
Layer 1
10
188.530
20
-57.795
11
188.353
21
-57.619
0
LINE
8
Layer 1
10
188.353
20
-57.619
11
189.767
21
-56.205
0
LINE
8
Layer 1
10
189.767
20
-56.205
11
189.944
21
-56.381
0
LINE
8
Layer 1
10
189.944
20
-56.381
11
188.530
21
-57.795
0
LINE
8
Layer 1
10
192.147
20
-57.795
11
191.970
21
-57.619
0
LINE
8
Layer 1
10
191.970
20
-57.619
11
193.384
21
-56.205
0
LINE
8
Layer 1
10
193.384
20
-56.205
11
193.561
21
-56.381
0
LINE
8
Layer 1
10
193.561
20
-56.381
11
192.147
21
-57.795
0
LINE
8
Layer 1
10
195.764
20
-57.795
11
195.587
21
-57.619
0
LINE
8
Layer 1
10
195.587
20
-57.619
11
197.001
21
-56.205
0
LINE
8
Layer 1
10
197.001
20
-56.205
11
197.178
21
-56.381
0
LINE
8
Layer 1
10
197.178
20
-56.381
11
195.764
21
-57.795
0
LINE
8
Layer 1
10
199.381
20
-57.795
11
199.204
21
-57.619
0
LINE
8
Layer 1
10
199.204
20
-57.619
11
200.619
21
-56.205
0
LINE
8
Layer 1
10
200.619
20
-56.205
11
200.796
21
-56.381
0
LINE
8
Layer 1
10
200.796
20
-56.381
11
199.381
21
-57.795
0
LINE
8
Layer 1
10
202.528
20
-57.532
11
202.335
21
-57.373
0
LINE
8
Layer 1
10
202.335
20
-57.373
11
203.601
21
-55.825
0
LINE
8
Layer 1
10
203.601
20
-55.825
11
203.795
21
-55.984
0
LINE
8
Layer 1
10
203.795
20
-55.984
11
202.528
21
-57.532
0
LINE
8
Layer 1
10
205.891
20
-57.195
11
205.698
21
-57.037
0
LINE
8
Layer 1
10
205.698
20
-57.037
11
206.964
21
-55.489
0
LINE
8
Layer 1
10
206.964
20
-55.489
11
207.158
21
-55.647
0
LINE
8
Layer 1
10
207.158
20
-55.647
11
205.891
21
-57.195
0
LINE
8
Layer 1
10
209.255
20
-56.859
11
209.061
21
-56.701
0
LINE
8
Layer 1
10
209.061
20
-56.701
11
210.328
21
-55.153
0
LINE
8
Layer 1
10
210.328
20
-55.153
11
210.521
21
-55.311
0
LINE
8
Layer 1
10
210.521
20
-55.311
11
209.255
21
-56.859
0
LINE
8
Layer 1
10
212.618
20
-56.523
11
212.424
21
-56.364
0
LINE
8
Layer 1
10
212.424
20
-56.364
11
213.691
21
-54.816
0
LINE
8
Layer 1
10
213.691
20
-54.816
11
213.884
21
-54.975
0
LINE
8
Layer 1
10
213.884
20
-54.975
11
212.618
21
-56.523
0
LINE
8
Layer 1
10
215.981
20
-56.186
11
215.788
21
-56.028
0
LINE
8
Layer 1
10
215.788
20
-56.028
11
217.054
21
-54.480
0
LINE
8
Layer 1
10
217.054
20
-54.480
11
217.248
21
-54.638
0
LINE
8
Layer 1
10
217.248
20
-54.638
11
215.981
21
-56.186
0
LINE
8
Layer 1
10
219.344
20
-55.850
11
219.151
21
-55.692
0
LINE
8
Layer 1
10
219.151
20
-55.692
11
220.417
21
-54.144
0
LINE
8
Layer 1
10
220.417
20
-54.144
11
220.611
21
-54.302
0
LINE
8
Layer 1
10
220.611
20
-54.302
11
219.344
21
-55.850
0
LINE
8
Layer 1
10
222.708
20
-55.514
11
222.514
21
-55.355
0
LINE
8
Layer 1
10
222.514
20
-55.355
11
223.781
21
-53.808
0
LINE
8
Layer 1
10
223.781
20
-53.808
11
223.974
21
-53.966
0
LINE
8
Layer 1
10
223.974
20
-53.966
11
222.708
21
-55.514
0
LINE
8
Layer 1
10
226.071
20
-55.177
11
225.877
21
-55.019
0
LINE
8
Layer 1
10
225.877
20
-55.019
11
227.144
21
-53.471
0
LINE
8
Layer 1
10
227.144
20
-53.471
11
227.337
21
-53.630
0
LINE
8
Layer 1
10
227.337
20
-53.630
11
226.071
21
-55.177
0
LINE
8
Layer 1
10
229.434
20
-54.841
11
229.241
21
-54.683
0
LINE
8
Layer 1
10
229.241
20
-54.683
11
230.507
21
-53.135
0
LINE
8
Layer 1
10
230.507
20
-53.135
11
230.700
21
-53.293
0
LINE
8
Layer 1
10
230.700
20
-53.293
11
229.434
21
-54.841
0
LINE
8
Layer 1
10
233.913
20
-52.794
11
234.106
21
-52.953
0
LINE
8
Layer 1
10
234.106
20
-52.953
11
232.840
21
-54.501
0
LINE
8
Layer 1
10
232.840
20
-54.501
11
232.646
21
-54.342
0
LINE
8
Layer 1
10
232.646
20
-54.342
11
233.913
21
-52.794
0
LINE
8
Layer 1
10
237.318
20
-52.454
11
237.512
21
-52.612
0
LINE
8
Layer 1
10
237.512
20
-52.612
11
236.245
21
-54.160
0
LINE
8
Layer 1
10
236.245
20
-54.160
11
236.052
21
-54.002
0
LINE
8
Layer 1
10
236.052
20
-54.002
11
237.318
21
-52.454
0
LINE
8
Layer 1
10
240.724
20
-52.113
11
240.918
21
-52.271
0
LINE
8
Layer 1
10
240.918
20
-52.271
11
239.651
21
-53.819
0
LINE
8
Layer 1
10
239.651
20
-53.819
11
239.458
21
-53.661
0
LINE
8
Layer 1
10
239.458
20
-53.661
11
240.724
21
-52.113
0
LINE
8
Layer 1
10
244.130
20
-51.773
11
244.323
21
-51.931
0
LINE
8
Layer 1
10
244.323
20
-51.931
11
243.057
21
-53.479
0
LINE
8
Layer 1
10
243.057
20
-53.479
11
242.863
21
-53.321
0
LINE
8
Layer 1
10
242.863
20
-53.321
11
244.130
21
-51.773
0
LINE
8
Layer 1
10
247.536
20
-51.432
11
247.730
21
-51.590
0
LINE
8
Layer 1
10
247.730
20
-51.590
11
246.464
21
-53.138
0
LINE
8
Layer 1
10
246.464
20
-53.138
11
246.270
21
-52.980
0
LINE
8
Layer 1
10
246.270
20
-52.980
11
247.536
21
-51.432
0
LINE
8
Layer 1
10
246.204
20
-48.024
11
246.381
21
-47.847
0
LINE
8
Layer 1
10
246.381
20
-47.847
11
247.796
21
-49.261
0
LINE
8
Layer 1
10
247.796
20
-49.261
11
247.619
21
-49.438
0
LINE
8
Layer 1
10
247.619
20
-49.438
11
246.204
21
-48.024
0
LINE
8
Layer 1
10
246.204
20
-44.381
11
246.381
21
-44.205
0
LINE
8
Layer 1
10
246.381
20
-44.205
11
247.796
21
-45.619
0
LINE
8
Layer 1
10
247.796
20
-45.619
11
247.619
21
-45.795
0
LINE
8
Layer 1
10
247.619
20
-45.795
11
246.204
21
-44.381
0
LINE
8
Layer 1
10
246.204
20
-40.739
11
246.381
21
-40.562
0
LINE
8
Layer 1
10
246.381
20
-40.562
11
247.796
21
-41.976
0
LINE
8
Layer 1
10
247.796
20
-41.976
11
247.619
21
-42.153
0
LINE
8
Layer 1
10
247.619
20
-42.153
11
246.204
21
-40.739
0
LINE
8
Layer 1
10
246.204
20
-37.096
11
246.381
21
-36.919
0
LINE
8
Layer 1
10
246.381
20
-36.919
11
247.796
21
-38.334
0
LINE
8
Layer 1
10
247.796
20
-38.334
11
247.619
21
-38.510
0
LINE
8
Layer 1
10
247.619
20
-38.510
11
246.204
21
-37.096
0
LINE
8
Layer 1
10
244.332
20
-36.649
11
244.490
21
-36.842
0
LINE
8
Layer 1
10
244.490
20
-36.842
11
242.942
21
-38.109
0
LINE
8
Layer 1
10
242.942
20
-38.109
11
242.784
21
-37.915
0
LINE
8
Layer 1
10
242.784
20
-37.915
11
244.332
21
-36.649
0
LINE
8
Layer 1
10
240.968
20
-36.312
11
241.127
21
-36.506
0
LINE
8
Layer 1
10
241.127
20
-36.506
11
239.579
21
-37.772
0
LINE
8
Layer 1
10
239.579
20
-37.772
11
239.420
21
-37.579
0
LINE
8
Layer 1
10
239.420
20
-37.579
11
240.968
21
-36.312
0
LINE
8
Layer 1
10
237.605
20
-35.976
11
237.763
21
-36.169
0
LINE
8
Layer 1
10
237.763
20
-36.169
11
236.216
21
-37.436
0
LINE
8
Layer 1
10
236.216
20
-37.436
11
236.057
21
-37.242
0
LINE
8
Layer 1
10
236.057
20
-37.242
11
237.605
21
-35.976
0
LINE
8
Layer 1
10
234.242
20
-35.640
11
234.400
21
-35.833
0
LINE
8
Layer 1
10
234.400
20
-35.833
11
232.852
21
-37.100
0
LINE
8
Layer 1
10
232.852
20
-37.100
11
232.694
21
-36.906
0
LINE
8
Layer 1
10
232.694
20
-36.906
11
234.242
21
-35.640
0
LINE
8
Layer 1
10
230.879
20
-35.303
11
231.037
21
-35.497
0
LINE
8
Layer 1
10
231.037
20
-35.497
11
229.489
21
-36.763
0
LINE
8
Layer 1
10
229.489
20
-36.763
11
229.331
21
-36.570
0
LINE
8
Layer 1
10
229.331
20
-36.570
11
230.879
21
-35.303
0
LINE
8
Layer 1
10
227.515
20
-34.967
11
227.674
21
-35.161
0
LINE
8
Layer 1
10
227.674
20
-35.161
11
226.126
21
-36.427
0
LINE
8
Layer 1
10
226.126
20
-36.427
11
225.968
21
-36.234
0
LINE
8
Layer 1
10
225.968
20
-36.234
11
227.515
21
-34.967
0
LINE
8
Layer 1
10
224.152
20
-34.631
11
224.311
21
-34.824
0
LINE
8
Layer 1
10
224.311
20
-34.824
11
222.763
21
-36.091
0
LINE
8
Layer 1
10
222.763
20
-36.091
11
222.604
21
-35.897
0
LINE
8
Layer 1
10
222.604
20
-35.897
11
224.152
21
-34.631
0
LINE
8
Layer 1
10
220.789
20
-34.294
11
220.947
21
-34.488
0
LINE
8
Layer 1
10
220.947
20
-34.488
11
219.399
21
-35.754
0
LINE
8
Layer 1
10
219.399
20
-35.754
11
219.241
21
-35.561
0
LINE
8
Layer 1
10
219.241
20
-35.561
11
220.789
21
-34.294
0
LINE
8
Layer 1
10
217.426
20
-33.958
11
217.584
21
-34.152
0
LINE
8
Layer 1
10
217.584
20
-34.152
11
216.036
21
-35.418
0
LINE
8
Layer 1
10
216.036
20
-35.418
11
215.878
21
-35.225
0
LINE
8
Layer 1
10
215.878
20
-35.225
11
217.426
21
-33.958
0
LINE
8
Layer 1
10
214.022
20
-33.618
11
214.180
21
-33.811
0
LINE
8
Layer 1
10
214.180
20
-33.811
11
212.633
21
-35.078
0
LINE
8
Layer 1
10
212.633
20
-35.078
11
212.474
21
-34.884
0
LINE
8
Layer 1
10
212.474
20
-34.884
11
214.022
21
-33.618
0
LINE
8
Layer 1
10
210.618
20
-33.277
11
210.777
21
-33.471
0
LINE
8
Layer 1
10
210.777
20
-33.471
11
209.229
21
-34.737
0
LINE
8
Layer 1
10
209.229
20
-34.737
11
209.071
21
-34.544
0
LINE
8
Layer 1
10
209.071
20
-34.544
11
210.618
21
-33.277
0
LINE
8
Layer 1
10
207.215
20
-32.937
11
207.373
21
-33.130
0
LINE
8
Layer 1
10
207.373
20
-33.130
11
205.825
21
-34.397
0
LINE
8
Layer 1
10
205.825
20
-34.397
11
205.667
21
-34.203
0
LINE
8
Layer 1
10
205.667
20
-34.203
11
207.215
21
-32.937
0
LINE
8
Layer 1
10
203.811
20
-32.597
11
203.969
21
-32.790
0
LINE
8
Layer 1
10
203.969
20
-32.790
11
202.421
21
-34.057
0
LINE
8
Layer 1
10
202.421
20
-34.057
11
202.263
21
-33.863
0
LINE
8
Layer 1
10
202.263
20
-33.863
11
203.811
21
-32.597
0
LINE
8
Layer 1
10
50.619
20
-51.205
11
50.795
21
-51.381
0
LINE
8
Layer 1
10
50.795
20
-51.381
11
49.381
21
-52.795
0
LINE
8
Layer 1
10
49.381
20
-52.795
11
49.205
21
-52.619
0
LINE
8
Layer 1
10
49.205
20
-52.619
11
50.619
21
-51.205
0
LINE
8
Layer 1
10
47.239
20
-51.205
11
47.415
21
-51.381
0
LINE
8
Layer 1
10
47.415
20
-51.381
11
46.001
21
-52.795
0
LINE
8
Layer 1
10
46.001
20
-52.795
11
45.825
21
-52.619
0
LINE
8
Layer 1
10
45.825
20
-52.619
11
47.239
21
-51.205
0
LINE
8
Layer 1
10
43.859
20
-51.205
11
44.035
21
-51.381
0
LINE
8
Layer 1
10
44.035
20
-51.381
11
42.621
21
-52.795
0
LINE
8
Layer 1
10
42.621
20
-52.795
11
42.445
21
-52.619
0
LINE
8
Layer 1
10
42.445
20
-52.619
11
43.859
21
-51.205
0
LINE
8
Layer 1
10
40.479
20
-51.205
11
40.655
21
-51.381
0
LINE
8
Layer 1
10
40.655
20
-51.381
11
39.241
21
-52.795
0
LINE
8
Layer 1
10
39.241
20
-52.795
11
39.065
21
-52.619
0
LINE
8
Layer 1
10
39.065
20
-52.619
11
40.479
21
-51.205
0
LINE
8
Layer 1
10
37.099
20
-51.205
11
37.275
21
-51.381
0
LINE
8
Layer 1
10
37.275
20
-51.381
11
35.861
21
-52.795
0
LINE
8
Layer 1
10
35.861
20
-52.795
11
35.685
21
-52.619
0
LINE
8
Layer 1
10
35.685
20
-52.619
11
37.099
21
-51.205
0
LINE
8
Layer 1
10
33.719
20
-51.205
11
33.895
21
-51.381
0
LINE
8
Layer 1
10
33.895
20
-51.381
11
32.481
21
-52.795
0
LINE
8
Layer 1
10
32.481
20
-52.795
11
32.305
21
-52.619
0
LINE
8
Layer 1
10
32.305
20
-52.619
11
33.719
21
-51.205
0
LINE
8
Layer 1
10
30.339
20
-51.205
11
30.515
21
-51.381
0
LINE
8
Layer 1
10
30.515
20
-51.381
11
29.101
21
-52.795
0
LINE
8
Layer 1
10
29.101
20
-52.795
11
28.924
21
-52.619
0
LINE
8
Layer 1
10
28.924
20
-52.619
11
30.339
21
-51.205
0
LINE
8
Layer 1
10
26.959
20
-51.205
11
27.135
21
-51.381
0
LINE
8
Layer 1
10
27.135
20
-51.381
11
25.721
21
-52.795
0
LINE
8
Layer 1
10
25.721
20
-52.795
11
25.544
21
-52.619
0
LINE
8
Layer 1
10
25.544
20
-52.619
11
26.959
21
-51.205
0
LINE
8
Layer 1
10
23.579
20
-51.205
11
23.755
21
-51.381
0
LINE
8
Layer 1
10
23.755
20
-51.381
11
22.341
21
-52.795
0
LINE
8
Layer 1
10
22.341
20
-52.795
11
22.164
21
-52.619
0
LINE
8
Layer 1
10
22.164
20
-52.619
11
23.579
21
-51.205
0
LINE
8
Layer 1
10
20.199
20
-51.205
11
20.375
21
-51.381
0
LINE
8
Layer 1
10
20.375
20
-51.381
11
18.961
21
-52.795
0
LINE
8
Layer 1
10
18.961
20
-52.795
11
18.784
21
-52.619
0
LINE
8
Layer 1
10
18.784
20
-52.619
11
20.199
21
-51.205
0
LINE
8
Layer 1
10
16.819
20
-51.205
11
16.995
21
-51.381
0
LINE
8
Layer 1
10
16.995
20
-51.381
11
15.581
21
-52.795
0
LINE
8
Layer 1
10
15.581
20
-52.795
11
15.404
21
-52.619
0
LINE
8
Layer 1
10
15.404
20
-52.619
11
16.819
21
-51.205
0
LINE
8
Layer 1
10
13.439
20
-51.205
11
13.615
21
-51.381
0
LINE
8
Layer 1
10
13.615
20
-51.381
11
12.201
21
-52.795
0
LINE
8
Layer 1
10
12.201
20
-52.795
11
12.024
21
-52.619
0
LINE
8
Layer 1
10
12.024
20
-52.619
11
13.439
21
-51.205
0
LINE
8
Layer 1
10
10.059
20
-51.205
11
10.235
21
-51.381
0
LINE
8
Layer 1
10
10.235
20
-51.381
11
8.821
21
-52.795
0
LINE
8
Layer 1
10
8.821
20
-52.795
11
8.644
21
-52.619
0
LINE
8
Layer 1
10
8.644
20
-52.619
11
10.059
21
-51.205
0
LINE
8
Layer 1
10
6.679
20
-51.205
11
6.855
21
-51.381
0
LINE
8
Layer 1
10
6.855
20
-51.381
11
5.441
21
-52.795
0
LINE
8
Layer 1
10
5.441
20
-52.795
11
5.264
21
-52.619
0
LINE
8
Layer 1
10
5.264
20
-52.619
11
6.679
21
-51.205
0
LINE
8
Layer 1
10
3.299
20
-51.205
11
3.475
21
-51.381
0
LINE
8
Layer 1
10
3.475
20
-51.381
11
2.061
21
-52.795
0
LINE
8
Layer 1
10
2.061
20
-52.795
11
1.884
21
-52.619
0
LINE
8
Layer 1
10
1.884
20
-52.619
11
3.299
21
-51.205
0
LINE
8
Layer 1
10
-0.081
20
-51.205
11
0.095
21
-51.381
0
LINE
8
Layer 1
10
0.095
20
-51.381
11
-1.319
21
-52.795
0
LINE
8
Layer 1
10
-1.319
20
-52.795
11
-1.496
21
-52.619
0
LINE
8
Layer 1
10
-1.496
20
-52.619
11
-0.081
21
-51.205
0
LINE
8
Layer 1
10
-3.461
20
-51.205
11
-3.285
21
-51.381
0
LINE
8
Layer 1
10
-3.285
20
-51.381
11
-4.699
21
-52.795
0
LINE
8
Layer 1
10
-4.699
20
-52.795
11
-4.876
21
-52.619
0
LINE
8
Layer 1
10
-4.876
20
-52.619
11
-3.461
21
-51.205
0
LINE
8
Layer 1
10
-6.841
20
-51.205
11
-6.665
21
-51.381
0
LINE
8
Layer 1
10
-6.665
20
-51.381
11
-8.079
21
-52.795
0
LINE
8
Layer 1
10
-8.079
20
-52.795
11
-8.256
21
-52.619
0
LINE
8
Layer 1
10
-8.256
20
-52.619
11
-6.841
21
-51.205
0
LINE
8
Layer 1
10
-10.221
20
-51.205
11
-10.045
21
-51.381
0
LINE
8
Layer 1
10
-10.045
20
-51.381
11
-11.459
21
-52.795
0
LINE
8
Layer 1
10
-11.459
20
-52.795
11
-11.636
21
-52.619
0
LINE
8
Layer 1
10
-11.636
20
-52.619
11
-10.221
21
-51.205
0
LINE
8
Layer 1
10
-15.179
20
-52.795
11
-15.355
21
-52.619
0
LINE
8
Layer 1
10
-15.355
20
-52.619
11
-13.941
21
-51.205
0
LINE
8
Layer 1
10
-13.941
20
-51.205
11
-13.765
21
-51.381
0
LINE
8
Layer 1
10
-13.765
20
-51.381
11
-15.179
21
-52.795
0
LINE
8
Layer 1
10
-18.899
20
-52.795
11
-19.075
21
-52.619
0
LINE
8
Layer 1
10
-19.075
20
-52.619
11
-17.661
21
-51.205
0
LINE
8
Layer 1
10
-17.661
20
-51.205
11
-17.485
21
-51.381
0
LINE
8
Layer 1
10
-17.485
20
-51.381
11
-18.899
21
-52.795
0
LINE
8
Layer 1
10
-22.619
20
-52.795
11
-22.795
21
-52.619
0
LINE
8
Layer 1
10
-22.795
20
-52.619
11
-21.381
21
-51.205
0
LINE
8
Layer 1
10
-21.381
20
-51.205
11
-21.205
21
-51.381
0
LINE
8
Layer 1
10
-21.205
20
-51.381
11
-22.619
21
-52.795
0
LINE
8
Layer 1
10
-22.795
20
-47.881
11
-22.619
21
-47.705
0
LINE
8
Layer 1
10
-22.619
20
-47.705
11
-21.205
21
-49.119
0
LINE
8
Layer 1
10
-21.205
20
-49.119
11
-21.381
21
-49.295
0
LINE
8
Layer 1
10
-21.381
20
-49.295
11
-22.795
21
-47.881
0
LINE
8
Layer 1
10
-22.795
20
-44.381
11
-22.619
21
-44.205
0
LINE
8
Layer 1
10
-22.619
20
-44.205
11
-21.205
21
-45.619
0
LINE
8
Layer 1
10
-21.205
20
-45.619
11
-21.381
21
-45.795
0
LINE
8
Layer 1
10
-21.381
20
-45.795
11
-22.795
21
-44.381
0
LINE
8
Layer 1
10
-22.795
20
-40.881
11
-22.619
21
-40.705
0
LINE
8
Layer 1
10
-22.619
20
-40.705
11
-21.205
21
-42.119
0
LINE
8
Layer 1
10
-21.205
20
-42.119
11
-21.381
21
-42.295
0
LINE
8
Layer 1
10
-21.381
20
-42.295
11
-22.795
21
-40.881
0
ENDSEC
0
EOF
